<?xml version="1.0" encoding="UTF-8" standalone="no"?>
<!-- Created with Inkscape (http://www.inkscape.org/) -->

<svg
   xmlns:dc="http://purl.org/dc/elements/1.1/"
   xmlns:cc="http://creativecommons.org/ns#"
   xmlns:rdf="http://www.w3.org/1999/02/22-rdf-syntax-ns#"
   xmlns:svg="http://www.w3.org/2000/svg"
   xmlns="http://www.w3.org/2000/svg"
   xmlns:xlink="http://www.w3.org/1999/xlink"
   xmlns:sodipodi="http://sodipodi.sourceforge.net/DTD/sodipodi-0.dtd"
   xmlns:inkscape="http://www.inkscape.org/namespaces/inkscape"
   width="512"
   height="512"
   id="svg3211"
   version="1.1"
   inkscape:version="0.48.4 r9939"
   sodipodi:docname="phideas_avatar_512.svg">
  <defs
     id="defs3213">
    <linearGradient
       inkscape:collect="always"
       xlink:href="#linearGradient4200-5"
       id="linearGradient3184"
       gradientUnits="userSpaceOnUse"
       gradientTransform="matrix(0.49841717,0,0,0.49841717,-1181.2306,114.61888)"
       x1="1400.7744"
       y1="35.835018"
       x2="1483.1555"
       y2="35.835018" />
    <linearGradient
       id="linearGradient4200-5"
       inkscape:collect="always">
      <stop
         id="stop4202-5"
         offset="0"
         style="stop-color:#ff8f21;stop-opacity:1" />
      <stop
         id="stop4204-5"
         offset="1"
         style="stop-color:#ff2121;stop-opacity:1" />
    </linearGradient>
  </defs>
  <sodipodi:namedview
     id="base"
     pagecolor="#ffffff"
     bordercolor="#666666"
     borderopacity="1.0"
     inkscape:pageopacity="0.0"
     inkscape:pageshadow="2"
     inkscape:zoom="0.98994949"
     inkscape:cx="395.28557"
     inkscape:cy="138.81098"
     inkscape:document-units="px"
     inkscape:current-layer="layer1"
     showgrid="false"
     inkscape:window-width="1855"
     inkscape:window-height="1176"
     inkscape:window-x="65"
     inkscape:window-y="24"
     inkscape:window-maximized="1" />
  <metadata
     id="metadata3216">
    <rdf:RDF>
      <cc:Work
         rdf:about="">
        <dc:format>image/svg+xml</dc:format>
        <dc:type
           rdf:resource="http://purl.org/dc/dcmitype/StillImage" />
        <dc:title />
      </cc:Work>
    </rdf:RDF>
  </metadata>
  <g
     inkscape:label="Vrstva 1"
     inkscape:groupmode="layer"
     id="layer1"
     transform="translate(0,-540.36218)">
    <g
       id="g5792"
       transform="matrix(7.7486745,0,0,7.7486745,3899.2141,-272.62392)"
       inkscape:export-filename="/home/gabo/Dokumenty/Graphics/phideas/g3289.png"
       inkscape:export-xdpi="289.81"
       inkscape:export-ydpi="289.81">
      <path
         id="path5047"
         d="m -473.48885,118.64595 c -0.19997,0.001 -0.39804,0.004 -0.60648,0.0196 -1.6677,0.12744 -3.50811,0.79363 -4.93054,1.74135 l -0.0195,0.0196 -0.0199,0.0196 c -3.25576,2.11172 -5.05903,6.42933 -4.48047,10.35025 l 0.0195,0.0978 0,0.0783 c 0.68289,7.83251 7.23787,15.00741 14.96772,16.39604 6.46218,1.07306 13.41908,-0.4918 19.31137,-3.73705 l 0.0195,0 c 2.98602,-1.63776 5.66392,-3.8078 7.96326,-6.33928 -3.83866,-9.04559 -11.78966,-15.91537 -21.52225,-18.23522 0.37481,0.81409 0.66474,1.66551 0.84138,2.5631 0.51905,2.63836 0,5.78902 -2.21098,8.06106 l -0.0194,0.0196 -0.0195,0.0196 c -1.13859,1.12924 -2.55479,1.9232 -4.2067,2.26962 -1.6517,0.34642 -3.6826,0.15772 -5.36092,-1.05655 a 3.1308235,3.1308235 0 1 1 3.65878,-5.06751 c 0.0259,0.0186 0.0688,0.0717 0.4109,0 0.33453,-0.0702 0.80942,-0.33151 1.05649,-0.5674 0.58923,-0.61713 0.76432,-1.36537 0.54781,-2.46528 -0.21871,-1.11215 -0.99155,-2.36189 -1.78044,-2.99355 l -0.0195,0 -0.0199,-0.0196 c -0.98243,-0.81647 -2.18068,-1.17982 -3.58058,-1.17394 z"
         style="color:#000000;fill:url(#linearGradient3184);fill-opacity:1;fill-rule:nonzero;stroke:none;stroke-width:40;marker:none;visibility:visible;display:inline;overflow:visible;enable-background:accumulate"
         inkscape:connector-curvature="0" />
      <path
         sodipodi:nodetypes="ccsccccccc"
         id="path5049"
         d="m -489.35656,124.84828 c -4.27308,3.34992 -7.6532,7.78753 -9.72417,12.89379 4.65048,11.4528 15.89378,19.52655 29.0159,19.52655 6.45869,0 12.45111,-1.96864 17.43309,-5.32187 -5.3841,1.84733 -11.21728,2.55858 -16.96348,1.60439 l -0.0195,0 c -10.66114,-1.88516 -19.08175,-11.07321 -20.11352,-21.83531 -0.0111,-0.0501 -0.0349,-0.1125 -0.039,-0.19566 -0.30364,-2.23846 -0.15251,-4.51501 0.41095,-6.6719 z"
         style="color:#000000;fill:#dcb08c;fill-opacity:1;fill-rule:nonzero;stroke:none;stroke-width:40;marker:none;visibility:visible;display:inline;overflow:visible;enable-background:accumulate"
         inkscape:connector-curvature="0" />
    </g>
  </g>
</svg>
